<svg width="1458" height="275" viewBox="0 0 1458 275" fill="none" xmlns="http://www.w3.org/2000/svg">
<path d="M869.5 4C869.5 2.067 871.067 0.5 873 0.5H1453.4C1455.33 0.5 1456.9 2.067 1456.9 4V92C1456.9 93.933 1455.33 95.5 1453.4 95.5H873C871.067 95.5 869.5 93.933 869.5 92V4Z" fill="#DE1185"/>
<path d="M869.5 4C869.5 2.067 871.067 0.5 873 0.5H1453.4C1455.33 0.5 1456.9 2.067 1456.9 4V92C1456.9 93.933 1455.33 95.5 1453.4 95.5H873C871.067 95.5 869.5 93.933 869.5 92V4Z" stroke="#DE1185"/>
<path d="M878.378 77V19.16C878.751 19.16 879.698 19.16 881.218 19.16C882.764 19.16 884.551 19.16 886.578 19.16C888.631 19.1333 890.644 19.1333 892.618 19.16C894.591 19.16 896.204 19.1867 897.458 19.24C904.444 19.4533 910.138 20.7733 914.538 23.2C918.964 25.6 922.204 28.9067 924.258 33.12C926.338 37.3067 927.378 42.2133 927.378 47.84C927.378 53.6533 926.284 58.7467 924.098 63.12C921.938 67.4933 918.631 70.9067 914.178 73.36C909.724 75.7867 904.058 77 897.178 77H878.378ZM892.058 66.16H897.578C900.218 66.16 902.724 65.56 905.098 64.36C907.471 63.16 909.404 61.2133 910.898 58.52C912.418 55.8267 913.178 52.2133 913.178 47.68C913.178 43.6533 912.538 40.3333 911.258 37.72C909.978 35.1067 908.178 33.1733 905.858 31.92C903.538 30.64 900.804 30 897.658 30H892.058V66.16ZM955.212 77.8C951.025 77.8 947.332 76.9333 944.132 75.2C940.958 73.4667 938.478 71.0267 936.692 67.88C934.932 64.7333 934.052 61.04 934.052 56.8C934.052 52.7733 934.852 49.1067 936.452 45.8C938.078 42.4667 940.425 39.8133 943.492 37.84C946.558 35.84 950.252 34.84 954.572 34.84C958.945 34.84 962.598 35.76 965.532 37.6C968.465 39.4133 970.665 41.92 972.132 45.12C973.625 48.2933 974.372 51.9333 974.372 56.04V59.44H947.452C947.425 61.3333 947.718 62.9333 948.332 64.24C948.945 65.52 949.812 66.4933 950.932 67.16C952.052 67.8267 953.358 68.16 954.852 68.16C956.558 68.16 958.065 67.8133 959.372 67.12C960.705 66.4 961.678 65.16 962.292 63.4H974.452C973.998 66.4133 972.798 69 970.852 71.16C968.932 73.2933 966.585 74.9333 963.812 76.08C961.038 77.2267 958.172 77.8 955.212 77.8ZM947.412 51.6H961.732C961.732 50.24 961.465 49 960.932 47.88C960.398 46.7333 959.598 45.8267 958.532 45.16C957.492 44.4933 956.172 44.16 954.572 44.16C953.158 44.16 951.905 44.52 950.812 45.24C949.745 45.9333 948.905 46.8533 948.292 48C947.705 49.12 947.412 50.32 947.412 51.6ZM999.34 77.8C996.46 77.8 993.646 77.32 990.9 76.36C988.153 75.4 985.806 73.8667 983.86 71.76C981.913 69.6533 980.66 66.9067 980.1 63.52H991.78C992.126 64.9333 992.753 66.0133 993.66 66.76C994.566 67.5067 995.526 68.0133 996.54 68.28C997.58 68.5467 998.486 68.68 999.26 68.68C1001.23 68.68 1002.83 68.4 1004.06 67.84C1005.29 67.28 1005.9 66.4267 1005.9 65.28C1005.9 64.32 1005.51 63.5733 1004.74 63.04C1003.99 62.48 1002.67 62.04 1000.78 61.72L994.1 60.48C990.286 59.76 987.22 58.44 984.9 56.52C982.58 54.5733 981.406 51.8267 981.38 48.28C981.353 45.7467 982.033 43.4667 983.42 41.44C984.806 39.4133 986.846 37.8133 989.54 36.64C992.233 35.44 995.526 34.84 999.42 34.84C1004.81 34.84 1009.09 36.0133 1012.26 38.36C1015.43 40.7067 1017.03 43.9467 1017.06 48.08H1005.86C1005.57 46.6667 1004.81 45.6 1003.58 44.88C1002.38 44.1333 1000.94 43.76 999.26 43.76C997.553 43.76 996.113 44.0533 994.94 44.64C993.793 45.2 993.22 46.0533 993.22 47.2C993.22 48.08 993.726 48.7867 994.74 49.32C995.753 49.8533 997.366 50.3333 999.58 50.76L1005.62 52C1008.1 52.6133 1010.11 53.44 1011.66 54.48C1013.21 55.4933 1014.39 56.6 1015.22 57.8C1016.07 59 1016.65 60.2 1016.94 61.4C1017.26 62.5733 1017.42 63.6133 1017.42 64.52C1017.42 67.3733 1016.63 69.7867 1015.06 71.76C1013.51 73.7333 1011.37 75.24 1008.62 76.28C1005.9 77.2933 1002.81 77.8 999.34 77.8ZM1024.83 77V35.64H1037.79V77H1024.83ZM1024.79 31V19.16H1037.87V31H1024.79ZM1066.51 90.68C1058.75 90.68 1052.91 89.7467 1048.99 87.88C1045.09 86.04 1043.15 83.6933 1043.15 80.84C1043.15 79.4533 1043.52 78.3067 1044.27 77.4C1045.04 76.4933 1045.93 75.7733 1046.95 75.24C1047.96 74.7067 1048.89 74.32 1049.75 74.08C1050.6 73.8133 1051.12 73.64 1051.31 73.56C1050.88 73.3467 1050.23 73 1049.35 72.52C1048.49 72.04 1047.69 71.36 1046.95 70.48C1046.2 69.6 1045.83 68.4533 1045.83 67.04C1045.83 65.4667 1046.56 64.0267 1048.03 62.72C1049.52 61.3867 1051.79 60.4933 1054.83 60.04C1051.97 58.7333 1049.83 56.9467 1048.39 54.68C1046.95 52.4133 1046.23 50.16 1046.23 47.92C1046.23 45.1733 1047.13 42.84 1048.95 40.92C1050.79 38.9733 1053.24 37.5067 1056.31 36.52C1059.37 35.5067 1062.79 35 1066.55 35C1069.43 35 1071.77 35.3067 1073.59 35.92C1075.4 36.5067 1077.08 37.24 1078.63 38.12C1079.32 37.8533 1080.19 37.52 1081.23 37.12C1082.27 36.6933 1083.39 36.2533 1084.59 35.8C1085.81 35.32 1087.01 34.84 1088.19 34.36C1089.39 33.8533 1090.49 33.4 1091.51 33L1091.43 43.04L1084.35 44.08C1084.56 44.7467 1084.72 45.4533 1084.83 46.2C1084.96 46.92 1085.03 47.48 1085.03 47.88C1085.03 50.2267 1084.29 52.4667 1082.83 54.6C1081.39 56.7333 1079.21 58.48 1076.31 59.84C1073.43 61.1733 1069.87 61.84 1065.63 61.84C1065.07 61.84 1064.28 61.8267 1063.27 61.8C1062.25 61.7467 1061.44 61.6933 1060.83 61.64C1059.84 61.72 1059.16 61.8667 1058.79 62.08C1058.41 62.2667 1058.23 62.52 1058.23 62.84C1058.23 63.4533 1058.83 63.84 1060.03 64C1061.23 64.1333 1062.93 64.28 1065.15 64.44C1065.95 64.4667 1067.09 64.52 1068.59 64.6C1070.11 64.68 1071.77 64.7867 1073.59 64.92C1078.97 65.2933 1082.95 66.6 1085.51 68.84C1088.07 71.08 1089.35 73.8133 1089.35 77.04C1089.35 80.9867 1087.44 84.24 1083.63 86.8C1079.84 89.3867 1074.13 90.68 1066.51 90.68ZM1068.67 83.32C1071.65 83.32 1073.69 83 1074.79 82.36C1075.88 81.72 1076.43 80.84 1076.43 79.72C1076.43 78.6533 1075.93 77.7867 1074.95 77.12C1073.96 76.4533 1072.55 76.0667 1070.71 75.96L1062.23 75.4C1060.89 75.32 1059.79 75.4667 1058.91 75.84C1058.05 76.2133 1057.43 76.7067 1057.03 77.32C1056.63 77.9333 1056.43 78.5733 1056.43 79.24C1056.43 80.76 1057.41 81.8133 1059.39 82.4C1061.39 83.0133 1064.48 83.32 1068.67 83.32ZM1066.07 54.48C1067.91 54.48 1069.39 53.92 1070.51 52.8C1071.63 51.68 1072.19 50.2 1072.19 48.36C1072.19 46.4933 1071.63 44.9467 1070.51 43.72C1069.39 42.4933 1067.91 41.88 1066.07 41.88C1064.23 41.88 1062.73 42.5067 1061.59 43.76C1060.44 44.9867 1059.87 46.52 1059.87 48.36C1059.87 50.1733 1060.43 51.6533 1061.55 52.8C1062.67 53.92 1064.17 54.48 1066.07 54.48ZM1097.13 77V35.64H1110.57V41.44C1111.16 40.48 1111.93 39.5333 1112.89 38.6C1113.88 37.6667 1115.12 36.8933 1116.61 36.28C1118.13 35.6667 1119.97 35.36 1122.13 35.36C1124.61 35.36 1126.95 35.84 1129.13 36.8C1131.35 37.76 1133.15 39.2933 1134.53 41.4C1135.92 43.48 1136.61 46.2133 1136.61 49.6V77H1122.93V51.4C1122.93 49.5867 1122.35 48.2267 1121.17 47.32C1120 46.3867 1118.65 45.92 1117.13 45.92C1116.12 45.92 1115.12 46.12 1114.13 46.52C1113.15 46.8933 1112.33 47.4667 1111.69 48.24C1111.05 48.9867 1110.73 49.9333 1110.73 51.08V77H1097.13ZM1186.6 77.8C1183.67 77.8 1180.79 77.44 1177.96 76.72C1175.14 75.9733 1172.54 74.8667 1170.16 73.4C1167.82 71.9067 1165.88 70.04 1164.36 67.8C1162.84 65.56 1161.95 62.9333 1161.68 59.92H1175.6C1175.95 61.4933 1176.63 62.8267 1177.64 63.92C1178.66 64.9867 1179.99 65.8133 1181.64 66.4C1183.3 66.96 1185.22 67.24 1187.4 67.24C1188.95 67.24 1190.46 67.04 1191.92 66.64C1193.39 66.2133 1194.6 65.5467 1195.56 64.64C1196.52 63.7333 1197 62.5333 1197 61.04C1197 59.2267 1196.3 57.92 1194.88 57.12C1193.47 56.2933 1191.67 55.6533 1189.48 55.2L1179.12 53.12C1175.87 52.48 1173.06 51.4667 1170.68 50.08C1168.34 48.6933 1166.52 46.8667 1165.24 44.6C1163.99 42.3333 1163.36 39.6 1163.36 36.4C1163.36 32.64 1164.4 29.4267 1166.48 26.76C1168.56 24.0667 1171.38 22.0133 1174.92 20.6C1178.5 19.16 1182.51 18.44 1186.96 18.44C1191.87 18.44 1196.04 19.2133 1199.48 20.76C1202.92 22.3067 1205.55 24.44 1207.36 27.16C1209.18 29.8533 1210.12 32.9067 1210.2 36.32H1196.6C1196.44 34.5867 1195.92 33.2 1195.04 32.16C1194.16 31.0933 1193 30.3067 1191.56 29.8C1190.12 29.2933 1188.46 29.04 1186.56 29.04C1183.39 29.04 1181.11 29.6533 1179.72 30.88C1178.34 32.1067 1177.64 33.4667 1177.64 34.96C1177.64 36.4533 1178.19 37.68 1179.28 38.64C1180.38 39.6 1182.19 40.32 1184.72 40.8L1194.04 42.6C1197.94 43.2667 1201.1 44.4 1203.52 46C1205.98 47.5733 1207.78 49.52 1208.92 51.84C1210.1 54.1333 1210.68 56.7333 1210.68 59.64C1210.68 63.2667 1209.63 66.44 1207.52 69.16C1205.44 71.88 1202.6 74 1199 75.52C1195.4 77.04 1191.27 77.8 1186.6 77.8ZM1226.29 90.2C1223.28 90.2 1221.13 89.9333 1219.85 89.4C1218.57 88.8667 1217.93 88.6 1217.93 88.6V79.96L1221.93 80.16C1223.85 80.2933 1225.37 80.2267 1226.49 79.96C1227.61 79.6933 1228.45 79.32 1229.01 78.84C1229.57 78.3867 1229.95 77.92 1230.13 77.44C1230.35 76.9867 1230.48 76.6667 1230.53 76.48L1231.01 74.92L1214.93 35.64H1228.37L1237.25 60.36L1246.33 35.64H1259.65L1243.21 75.92C1241.59 79.84 1239.91 82.8267 1238.17 84.88C1236.44 86.96 1234.59 88.36 1232.61 89.08C1230.67 89.8267 1228.56 90.2 1226.29 90.2ZM1280.9 77.8C1278.02 77.8 1275.21 77.32 1272.46 76.36C1269.72 75.4 1267.37 73.8667 1265.42 71.76C1263.48 69.6533 1262.22 66.9067 1261.66 63.52H1273.34C1273.69 64.9333 1274.32 66.0133 1275.22 66.76C1276.13 67.5067 1277.09 68.0133 1278.1 68.28C1279.14 68.5467 1280.05 68.68 1280.82 68.68C1282.8 68.68 1284.4 68.4 1285.62 67.84C1286.85 67.28 1287.46 66.4267 1287.46 65.28C1287.46 64.32 1287.08 63.5733 1286.3 63.04C1285.56 62.48 1284.24 62.04 1282.34 61.72L1275.66 60.48C1271.85 59.76 1268.78 58.44 1266.46 56.52C1264.14 54.5733 1262.97 51.8267 1262.94 48.28C1262.92 45.7467 1263.6 43.4667 1264.98 41.44C1266.37 39.4133 1268.41 37.8133 1271.1 36.64C1273.8 35.44 1277.09 34.84 1280.98 34.84C1286.37 34.84 1290.65 36.0133 1293.82 38.36C1297 40.7067 1298.6 43.9467 1298.62 48.08H1287.42C1287.13 46.6667 1286.37 45.6 1285.14 44.88C1283.94 44.1333 1282.5 43.76 1280.82 43.76C1279.12 43.76 1277.68 44.0533 1276.5 44.64C1275.36 45.2 1274.78 46.0533 1274.78 47.2C1274.78 48.08 1275.29 48.7867 1276.3 49.32C1277.32 49.8533 1278.93 50.3333 1281.14 50.76L1287.18 52C1289.66 52.6133 1291.68 53.44 1293.22 54.48C1294.77 55.4933 1295.96 56.6 1296.78 57.8C1297.64 59 1298.21 60.2 1298.5 61.4C1298.82 62.5733 1298.98 63.6133 1298.98 64.52C1298.98 67.3733 1298.2 69.7867 1296.62 71.76C1295.08 73.7333 1292.93 75.24 1290.18 76.28C1287.46 77.2933 1284.37 77.8 1280.9 77.8ZM1325.51 77.52C1321.54 77.52 1318.46 77.0267 1316.27 76.04C1314.11 75.0267 1312.6 73.6533 1311.75 71.92C1310.92 70.16 1310.51 68.1733 1310.51 65.96V44.96H1303.79V35.64H1310.99L1314.47 22.96H1324.11V35.56H1333.19V44.96H1324.11L1324.15 65.36C1324.15 66.1867 1324.27 66.8 1324.51 67.2C1324.78 67.6 1325.14 67.8667 1325.59 68C1326.04 68.1333 1326.59 68.2 1327.23 68.2H1333.27V76.4C1332.71 76.64 1331.84 76.88 1330.67 77.12C1329.5 77.3867 1327.78 77.52 1325.51 77.52ZM1358.96 77.8C1354.77 77.8 1351.08 76.9333 1347.88 75.2C1344.71 73.4667 1342.23 71.0267 1340.44 67.88C1338.68 64.7333 1337.8 61.04 1337.8 56.8C1337.8 52.7733 1338.6 49.1067 1340.2 45.8C1341.83 42.4667 1344.17 39.8133 1347.24 37.84C1350.31 35.84 1354 34.84 1358.32 34.84C1362.69 34.84 1366.35 35.76 1369.28 37.6C1372.21 39.4133 1374.41 41.92 1375.88 45.12C1377.37 48.2933 1378.12 51.9333 1378.12 56.04V59.44H1351.2C1351.17 61.3333 1351.47 62.9333 1352.08 64.24C1352.69 65.52 1353.56 66.4933 1354.68 67.16C1355.8 67.8267 1357.11 68.16 1358.6 68.16C1360.31 68.16 1361.81 67.8133 1363.12 67.12C1364.45 66.4 1365.43 65.16 1366.04 63.4H1378.2C1377.75 66.4133 1376.55 69 1374.6 71.16C1372.68 73.2933 1370.33 74.9333 1367.56 76.08C1364.79 77.2267 1361.92 77.8 1358.96 77.8ZM1351.16 51.6H1365.48C1365.48 50.24 1365.21 49 1364.68 47.88C1364.15 46.7333 1363.35 45.8267 1362.28 45.16C1361.24 44.4933 1359.92 44.16 1358.32 44.16C1356.91 44.16 1355.65 44.52 1354.56 45.24C1353.49 45.9333 1352.65 46.8533 1352.04 48C1351.45 49.12 1351.16 50.32 1351.16 51.6ZM1385.73 77V35.64H1399.09V41.44C1400.39 39.6267 1402.14 38.08 1404.33 36.8C1406.51 35.4933 1409.21 34.84 1412.41 34.84C1413.79 34.84 1415.21 35.0933 1416.65 35.6C1418.09 36.08 1419.43 36.8133 1420.69 37.8C1421.97 38.76 1423.05 39.96 1423.93 41.4C1425.26 39.5867 1427.01 38.04 1429.17 36.76C1431.33 35.48 1433.74 34.84 1436.41 34.84C1437.95 34.84 1439.53 35.12 1441.13 35.68C1442.73 36.2133 1444.18 37.0667 1445.49 38.24C1446.82 39.3867 1447.89 40.8933 1448.69 42.76C1449.51 44.6267 1449.93 46.9067 1449.93 49.6V77H1436.29V51.4C1436.29 50.0933 1435.99 49.04 1435.41 48.24C1434.85 47.4133 1434.13 46.8133 1433.25 46.44C1432.37 46.04 1431.45 45.84 1430.49 45.84C1429.58 45.84 1428.67 46.0267 1427.77 46.4C1426.86 46.7733 1426.1 47.3467 1425.49 48.12C1424.87 48.8933 1424.57 49.88 1424.57 51.08V77H1410.97V50.88C1410.97 49.7867 1410.67 48.8667 1410.09 48.12C1409.53 47.3733 1408.81 46.8133 1407.93 46.44C1407.07 46.04 1406.18 45.84 1405.25 45.84C1404.34 45.84 1403.42 46.04 1402.49 46.44C1401.58 46.8133 1400.82 47.3867 1400.21 48.16C1399.62 48.9333 1399.33 49.9067 1399.33 51.08V77H1385.73Z" fill="white"/>
<path d="M0.282471 268.316V118.078C4.64883 118.078 41.2431 117.87 54.3421 118.286C108.61 120.156 132.105 150.079 132.105 192.678C132.105 236.523 107.362 268.316 54.1342 268.316H0.282471ZM40.7233 236.523H55.3818C70.664 236.523 89.8968 224.679 89.8968 192.054C89.8968 164.417 75.966 149.871 55.3818 149.871H40.7233V236.523Z" fill="black"/>
<path d="M382.859 268.316V153.611H340.235V118.078H466.443V153.611H423.403V268.316H382.859Z" fill="black"/>
<path d="M614.016 270.394C583.035 270.394 549.976 255.017 547.377 222.601H588.545C590.832 233.198 599.981 239.432 616.511 239.432C626.179 239.432 638.135 236.315 638.135 226.341C638.135 217.613 629.818 215.328 619.941 213.561L594.263 208.99C567.337 204.21 551.639 189.768 551.639 164.209C551.639 133.871 579.293 116.208 615.367 116.208C654.56 116.208 677.016 135.741 677.64 163.586H637.511C636.263 152.261 628.05 147.378 614.224 147.378C599.253 147.378 594.055 153.819 594.055 159.845C594.055 166.079 598.214 170.547 610.897 172.625L633.248 176.262C664.645 181.353 678.575 197.873 678.575 221.977C678.575 251.277 650.922 270.394 614.016 270.394Z" fill="black"/>
<path d="M755.128 268.316V153.611H712.504V118.078H838.713V153.611H795.673V268.316H755.128Z" fill="black"/>
<path d="M941.471 270.394C893.026 270.394 876.6 244.419 876.6 206.184V118.078H917.56V207.847C917.56 228.627 928.788 236.523 941.471 236.523C953.947 236.523 965.382 228.627 965.382 207.847V118.078H1006.34V206.184C1006.34 244.419 989.917 270.394 941.471 270.394Z" fill="black"/>
<path d="M1052.32 268.316V118.078C1056.68 118.078 1093.28 117.87 1106.38 118.286C1160.65 120.156 1184.14 150.079 1184.14 192.678C1184.14 236.523 1159.4 268.316 1106.17 268.316H1052.32ZM1092.76 236.523H1107.42C1122.7 236.523 1141.93 224.679 1141.93 192.054C1141.93 164.417 1128 149.871 1107.42 149.871H1092.76V236.523Z" fill="black"/>
<path d="M1227.83 268.316V118.078H1268.27V268.316H1227.83Z" fill="black"/>
<path d="M1384.84 270.394C1340.13 270.394 1311.85 240.263 1311.85 193.509C1311.85 146.546 1340.96 116 1384.84 116C1428.5 116 1457.4 146.546 1457.4 193.509C1457.4 240.056 1429.12 270.394 1384.84 270.394ZM1384.84 237.978C1401.47 237.978 1413.53 226.549 1413.53 194.132C1413.53 160.677 1401.47 148.417 1384.84 148.417C1368.2 148.417 1356.04 160.677 1356.04 194.132C1356.04 226.549 1368.2 237.978 1384.84 237.978Z" fill="black"/>
<path d="M317.623 196.885C317.623 239.922 282.714 274.81 239.652 274.81C196.59 274.81 161.682 239.922 161.682 196.885C161.682 153.849 196.59 118.961 239.652 118.961C282.714 118.961 317.623 153.849 317.623 196.885Z" fill="url(#paint0_radial_7_167)"/>
<defs>
<radialGradient id="paint0_radial_7_167" cx="0" cy="0" r="1" gradientUnits="userSpaceOnUse" gradientTransform="translate(239.653 196.885) rotate(90) scale(77.9243 77.9707)">
<stop stop-color="#C5B9FF"/>
<stop offset="1" stop-color="#9A85FF"/>
</radialGradient>
</defs>
</svg>
